%TF.GenerationSoftware,KiCad,Pcbnew,(7.0.0)*%
%TF.CreationDate,2023-05-29T03:25:23+05:30*%
%TF.ProjectId,sat-pcb,7361742d-7063-4622-9e6b-696361645f70,rev?*%
%TF.SameCoordinates,Original*%
%TF.FileFunction,Legend,Top*%
%TF.FilePolarity,Positive*%
%FSLAX46Y46*%
G04 Gerber Fmt 4.6, Leading zero omitted, Abs format (unit mm)*
G04 Created by KiCad (PCBNEW (7.0.0)) date 2023-05-29 03:25:23*
%MOMM*%
%LPD*%
G01*
G04 APERTURE LIST*
%ADD10C,0.150000*%
%ADD11C,0.127000*%
%ADD12C,0.200000*%
%ADD13C,0.120000*%
G04 APERTURE END LIST*
D10*
X116588095Y-84837380D02*
X116588095Y-85646904D01*
X116588095Y-85646904D02*
X116635714Y-85742142D01*
X116635714Y-85742142D02*
X116683333Y-85789761D01*
X116683333Y-85789761D02*
X116778571Y-85837380D01*
X116778571Y-85837380D02*
X116969047Y-85837380D01*
X116969047Y-85837380D02*
X117064285Y-85789761D01*
X117064285Y-85789761D02*
X117111904Y-85742142D01*
X117111904Y-85742142D02*
X117159523Y-85646904D01*
X117159523Y-85646904D02*
X117159523Y-84837380D01*
X117588095Y-85789761D02*
X117730952Y-85837380D01*
X117730952Y-85837380D02*
X117969047Y-85837380D01*
X117969047Y-85837380D02*
X118064285Y-85789761D01*
X118064285Y-85789761D02*
X118111904Y-85742142D01*
X118111904Y-85742142D02*
X118159523Y-85646904D01*
X118159523Y-85646904D02*
X118159523Y-85551666D01*
X118159523Y-85551666D02*
X118111904Y-85456428D01*
X118111904Y-85456428D02*
X118064285Y-85408809D01*
X118064285Y-85408809D02*
X117969047Y-85361190D01*
X117969047Y-85361190D02*
X117778571Y-85313571D01*
X117778571Y-85313571D02*
X117683333Y-85265952D01*
X117683333Y-85265952D02*
X117635714Y-85218333D01*
X117635714Y-85218333D02*
X117588095Y-85123095D01*
X117588095Y-85123095D02*
X117588095Y-85027857D01*
X117588095Y-85027857D02*
X117635714Y-84932619D01*
X117635714Y-84932619D02*
X117683333Y-84885000D01*
X117683333Y-84885000D02*
X117778571Y-84837380D01*
X117778571Y-84837380D02*
X118016666Y-84837380D01*
X118016666Y-84837380D02*
X118159523Y-84885000D01*
X118921428Y-85313571D02*
X119064285Y-85361190D01*
X119064285Y-85361190D02*
X119111904Y-85408809D01*
X119111904Y-85408809D02*
X119159523Y-85504047D01*
X119159523Y-85504047D02*
X119159523Y-85646904D01*
X119159523Y-85646904D02*
X119111904Y-85742142D01*
X119111904Y-85742142D02*
X119064285Y-85789761D01*
X119064285Y-85789761D02*
X118969047Y-85837380D01*
X118969047Y-85837380D02*
X118588095Y-85837380D01*
X118588095Y-85837380D02*
X118588095Y-84837380D01*
X118588095Y-84837380D02*
X118921428Y-84837380D01*
X118921428Y-84837380D02*
X119016666Y-84885000D01*
X119016666Y-84885000D02*
X119064285Y-84932619D01*
X119064285Y-84932619D02*
X119111904Y-85027857D01*
X119111904Y-85027857D02*
X119111904Y-85123095D01*
X119111904Y-85123095D02*
X119064285Y-85218333D01*
X119064285Y-85218333D02*
X119016666Y-85265952D01*
X119016666Y-85265952D02*
X118921428Y-85313571D01*
X118921428Y-85313571D02*
X118588095Y-85313571D01*
X120902380Y-84789761D02*
X120045238Y-86075476D01*
X120997619Y-85932619D02*
X121759523Y-85932619D01*
X121759524Y-85932619D02*
X122521428Y-85932619D01*
X122521429Y-85932619D02*
X123283333Y-85932619D01*
X123283334Y-85932619D02*
X124045238Y-85932619D01*
X124045239Y-85932619D02*
X124807143Y-85932619D01*
X124807144Y-85932619D02*
X125569048Y-85932619D01*
X120454761Y-86362142D02*
X121311904Y-87647857D01*
%TO.C,A1*%
X163189333Y-73799999D02*
X163189333Y-73133332D01*
X163589333Y-73933332D02*
X162189333Y-73466666D01*
X162189333Y-73466666D02*
X163589333Y-72999999D01*
X163589333Y-71799999D02*
X163589333Y-72599999D01*
X163589333Y-72199999D02*
X162189333Y-72199999D01*
X162189333Y-72199999D02*
X162389333Y-72333332D01*
X162389333Y-72333332D02*
X162522666Y-72466666D01*
X162522666Y-72466666D02*
X162589333Y-72599999D01*
%TO.C,VIN1*%
X137403572Y-73192380D02*
X137736905Y-74192380D01*
X137736905Y-74192380D02*
X138070238Y-73192380D01*
X138403572Y-74192380D02*
X138403572Y-73192380D01*
X138879762Y-74192380D02*
X138879762Y-73192380D01*
X138879762Y-73192380D02*
X139451190Y-74192380D01*
X139451190Y-74192380D02*
X139451190Y-73192380D01*
X140451190Y-74192380D02*
X139879762Y-74192380D01*
X140165476Y-74192380D02*
X140165476Y-73192380D01*
X140165476Y-73192380D02*
X140070238Y-73335238D01*
X140070238Y-73335238D02*
X139975000Y-73430476D01*
X139975000Y-73430476D02*
X139879762Y-73478095D01*
%TO.C,J3*%
X128216666Y-73382380D02*
X128216666Y-74096666D01*
X128216666Y-74096666D02*
X128169047Y-74239523D01*
X128169047Y-74239523D02*
X128073809Y-74334761D01*
X128073809Y-74334761D02*
X127930952Y-74382380D01*
X127930952Y-74382380D02*
X127835714Y-74382380D01*
X128597619Y-73382380D02*
X129216666Y-73382380D01*
X129216666Y-73382380D02*
X128883333Y-73763333D01*
X128883333Y-73763333D02*
X129026190Y-73763333D01*
X129026190Y-73763333D02*
X129121428Y-73810952D01*
X129121428Y-73810952D02*
X129169047Y-73858571D01*
X129169047Y-73858571D02*
X129216666Y-73953809D01*
X129216666Y-73953809D02*
X129216666Y-74191904D01*
X129216666Y-74191904D02*
X129169047Y-74287142D01*
X129169047Y-74287142D02*
X129121428Y-74334761D01*
X129121428Y-74334761D02*
X129026190Y-74382380D01*
X129026190Y-74382380D02*
X128740476Y-74382380D01*
X128740476Y-74382380D02*
X128645238Y-74334761D01*
X128645238Y-74334761D02*
X128597619Y-74287142D01*
D11*
%TO.C,A1*%
X118300000Y-66880000D02*
X161480000Y-66880000D01*
X164020000Y-69420000D02*
X164020000Y-89740000D01*
X115760000Y-89740000D02*
X115760000Y-69420000D01*
X161480000Y-92280000D02*
X118300000Y-92280000D01*
X164020000Y-69420000D02*
G75*
G03*
X161480000Y-66880000I-2540001J-1D01*
G01*
X118300000Y-66880000D02*
G75*
G03*
X115760000Y-69420000I1J-2540001D01*
G01*
X161480000Y-92280000D02*
G75*
G03*
X164020000Y-89740000I0J2540000D01*
G01*
X115760000Y-89740000D02*
G75*
G03*
X118300000Y-92280000I2540000J0D01*
G01*
D12*
X157770000Y-65770000D02*
G75*
G03*
X157770000Y-65770000I-100000J0D01*
G01*
X157770000Y-93390000D02*
G75*
G03*
X157770000Y-93390000I-100000J0D01*
G01*
D13*
%TO.C,VIN1*%
X139935000Y-71205000D02*
X139935000Y-71900000D01*
X139250000Y-71205000D02*
X139935000Y-71205000D01*
X138565000Y-71205000D02*
X137690000Y-71205000D01*
X138565000Y-71205000D02*
X138565000Y-71291724D01*
X137690000Y-71205000D02*
X137690000Y-71505507D01*
X137690000Y-72294493D02*
X137690000Y-72595000D01*
X138565000Y-72508276D02*
X138565000Y-72595000D01*
X138565000Y-72595000D02*
X137690000Y-72595000D01*
%TO.C,J3*%
X127855000Y-74890000D02*
X128550000Y-74890000D01*
X127855000Y-75575000D02*
X127855000Y-74890000D01*
X127855000Y-76260000D02*
X127855000Y-77135000D01*
X127855000Y-76260000D02*
X127941724Y-76260000D01*
X127855000Y-77135000D02*
X128155507Y-77135000D01*
X128944493Y-77135000D02*
X129245000Y-77135000D01*
X129158276Y-76260000D02*
X129245000Y-76260000D01*
X129245000Y-76260000D02*
X129245000Y-77135000D01*
%TD*%
M02*
