%TF.GenerationSoftware,KiCad,Pcbnew,(7.0.0)*%
%TF.CreationDate,2023-05-29T03:25:23+05:30*%
%TF.ProjectId,sat-pcb,7361742d-7063-4622-9e6b-696361645f70,rev?*%
%TF.SameCoordinates,Original*%
%TF.FileFunction,Copper,L2,Bot*%
%TF.FilePolarity,Positive*%
%FSLAX46Y46*%
G04 Gerber Fmt 4.6, Leading zero omitted, Abs format (unit mm)*
G04 Created by KiCad (PCBNEW (7.0.0)) date 2023-05-29 03:25:23*
%MOMM*%
%LPD*%
G01*
G04 APERTURE LIST*
%TA.AperFunction,ComponentPad*%
%ADD10R,1.930000X1.930000*%
%TD*%
%TA.AperFunction,ComponentPad*%
%ADD11C,1.930000*%
%TD*%
%TA.AperFunction,ComponentPad*%
%ADD12R,0.850000X0.850000*%
%TD*%
%TA.AperFunction,ComponentPad*%
%ADD13O,0.850000X0.850000*%
%TD*%
%TA.AperFunction,ComponentPad*%
%ADD14R,1.600000X1.600000*%
%TD*%
%TA.AperFunction,ComponentPad*%
%ADD15O,1.600000X1.600000*%
%TD*%
%TA.AperFunction,ComponentPad*%
%ADD16R,1.350000X1.350000*%
%TD*%
%TA.AperFunction,ComponentPad*%
%ADD17O,1.350000X1.350000*%
%TD*%
%TA.AperFunction,Conductor*%
%ADD18C,0.250000*%
%TD*%
G04 APERTURE END LIST*
D10*
%TO.P,A1,J1_1,A0*%
%TO.N,unconnected-(A1A-A0-PadJ1_1)*%
X157669999Y-68149999D03*
D11*
%TO.P,A1,J1_2,RSV1*%
%TO.N,unconnected-(A1A-RSV1-PadJ1_2)*%
X155130000Y-68150000D03*
%TO.P,A1,J1_3,RSV2*%
%TO.N,unconnected-(A1A-RSV2-PadJ1_3)*%
X152590000Y-68150000D03*
%TO.P,A1,J1_4,SD3*%
%TO.N,unconnected-(A1A-SD3-PadJ1_4)*%
X150050000Y-68150000D03*
%TO.P,A1,J1_5,SD2*%
%TO.N,unconnected-(A1A-SD2-PadJ1_5)*%
X147510000Y-68150000D03*
%TO.P,A1,J1_6,SD1*%
%TO.N,unconnected-(A1A-SD1-PadJ1_6)*%
X144970000Y-68150000D03*
%TO.P,A1,J1_7,CMD*%
%TO.N,unconnected-(A1A-CMD-PadJ1_7)*%
X142430000Y-68150000D03*
%TO.P,A1,J1_8,SD0*%
%TO.N,unconnected-(A1A-SD0-PadJ1_8)*%
X139890000Y-68150000D03*
%TO.P,A1,J1_9,CLK*%
%TO.N,unconnected-(A1A-CLK-PadJ1_9)*%
X137350000Y-68150000D03*
%TO.P,A1,J1_10,GND*%
%TO.N,Net-(A1A-GND-PadJ1_10)*%
X134810000Y-68150000D03*
%TO.P,A1,J1_11,3V3*%
%TO.N,Net-(A1A-3V3)*%
X132270000Y-68150000D03*
%TO.P,A1,J1_12,EN*%
%TO.N,unconnected-(A1A-EN-PadJ1_12)*%
X129730000Y-68150000D03*
%TO.P,A1,J1_13,RST*%
%TO.N,unconnected-(A1A-RST-PadJ1_13)*%
X127190000Y-68150000D03*
%TO.P,A1,J1_14,GND*%
%TO.N,Net-(A1A-GND-PadJ1_10)*%
X124650000Y-68150000D03*
%TO.P,A1,J1_15,VIN*%
%TO.N,vout5*%
X122110000Y-68150000D03*
D10*
%TO.P,A1,J2_1,D0*%
%TO.N,unconnected-(A1B-D0-PadJ2_1)*%
X157669999Y-91009999D03*
D11*
%TO.P,A1,J2_2,D1*%
%TO.N,scl*%
X155130000Y-91010000D03*
%TO.P,A1,J2_3,D2*%
%TO.N,sda*%
X152590000Y-91010000D03*
%TO.P,A1,J2_4,D3*%
%TO.N,unconnected-(A1B-D3-PadJ2_4)*%
X150050000Y-91010000D03*
%TO.P,A1,J2_5,D4*%
%TO.N,unconnected-(A1B-D4-PadJ2_5)*%
X147510000Y-91010000D03*
%TO.P,A1,J2_6,3V3*%
%TO.N,Net-(A1B-3V3-PadJ2_15)*%
X144970000Y-91010000D03*
%TO.P,A1,J2_7,GND*%
%TO.N,gns*%
X142430000Y-91010000D03*
%TO.P,A1,J2_8,D5*%
%TO.N,unconnected-(A1B-D5-PadJ2_8)*%
X139890000Y-91010000D03*
%TO.P,A1,J2_9,D6*%
%TO.N,unconnected-(A1B-D6-PadJ2_9)*%
X137350000Y-91010000D03*
%TO.P,A1,J2_10,D7*%
%TO.N,unconnected-(A1B-D7-PadJ2_10)*%
X134810000Y-91010000D03*
%TO.P,A1,J2_11,D8*%
%TO.N,unconnected-(A1B-D8-PadJ2_11)*%
X132270000Y-91010000D03*
%TO.P,A1,J2_12,D9*%
%TO.N,unconnected-(A1B-D9-PadJ2_12)*%
X129730000Y-91010000D03*
%TO.P,A1,J2_13,D10*%
%TO.N,unconnected-(A1B-D10-PadJ2_13)*%
X127190000Y-91010000D03*
%TO.P,A1,J2_14,GND*%
%TO.N,gns*%
X124650000Y-91010000D03*
%TO.P,A1,J2_15,3V3*%
%TO.N,Net-(A1B-3V3-PadJ2_15)*%
X122110000Y-91010000D03*
%TD*%
D12*
%TO.P,VIN1,1,Pin_1*%
%TO.N,gns*%
X139249999Y-71899999D03*
D13*
%TO.P,VIN1,2,Pin_2*%
%TO.N,vout5*%
X138249999Y-71899999D03*
%TD*%
D12*
%TO.P,J3,1,Pin_1*%
%TO.N,N/C*%
X128549999Y-75574999D03*
D13*
%TO.P,J3,2,Pin_2*%
X128549999Y-76574999D03*
%TD*%
D14*
%TO.P,U1,1,X1*%
%TO.N,N/C*%
X125719999Y-74939999D03*
D15*
%TO.P,U1,2,X2*%
X125719999Y-77479999D03*
%TO.P,U1,3,VBAT*%
%TO.N,Net-(Jbattery1-Pin_1)*%
X125719999Y-80019999D03*
%TO.P,U1,4,GND*%
%TO.N,gns*%
X125719999Y-82559999D03*
%TO.P,U1,5,SDA*%
%TO.N,sda*%
X118099999Y-82559999D03*
%TO.P,U1,6,SCL*%
%TO.N,scl*%
X118099999Y-80019999D03*
%TO.P,U1,7,SQW/OUT*%
%TO.N,unconnected-(U1-SQW{slash}OUT-Pad7)*%
X118099999Y-77479999D03*
%TO.P,U1,8,VCC*%
%TO.N,Net-(A1A-3V3)*%
X118099999Y-74939999D03*
%TD*%
D16*
%TO.P,Jbattery1,1,Pin_1*%
%TO.N,Net-(Jbattery1-Pin_1)*%
X160019999Y-78739999D03*
D17*
%TO.P,Jbattery1,2,Pin_2*%
%TO.N,gns*%
X160019999Y-80739999D03*
%TD*%
D16*
%TO.P,Jdisplay1,1,Pin_1*%
%TO.N,scl*%
X157479999Y-76199999D03*
D17*
%TO.P,Jdisplay1,2,Pin_2*%
%TO.N,sda*%
X157479999Y-78199999D03*
%TO.P,Jdisplay1,3,Pin_3*%
%TO.N,vout5*%
X157479999Y-80199999D03*
%TO.P,Jdisplay1,4,Pin_4*%
%TO.N,gns*%
X157479999Y-82199999D03*
%TD*%
D18*
%TO.N,*%
X126355000Y-75575000D02*
X125720000Y-74940000D01*
X125720000Y-77480000D02*
X127645000Y-77480000D01*
X128550000Y-75575000D02*
X126355000Y-75575000D01*
X127645000Y-77480000D02*
X128550000Y-76575000D01*
%TO.N,Net-(A1A-3V3)*%
X127320000Y-73100000D02*
X132270000Y-68150000D01*
X119225100Y-74940000D02*
X121065100Y-73100000D01*
X118100000Y-74940000D02*
X119225100Y-74940000D01*
X121065100Y-73100000D02*
X127320000Y-73100000D01*
%TO.N,gns*%
X139250000Y-70500000D02*
X139250000Y-71900000D01*
X157480000Y-82200000D02*
X151240000Y-82200000D01*
X142430000Y-91010000D02*
X142430000Y-86618200D01*
X124460000Y-91409800D02*
X124460000Y-91440000D01*
X138371800Y-82560000D02*
X137125000Y-81313200D01*
X124650000Y-91010000D02*
X125720000Y-89940000D01*
X137150000Y-71400000D02*
X138075000Y-70475000D01*
X142430000Y-86618200D02*
X138371800Y-82560000D01*
X151240000Y-82200000D02*
X144625900Y-88814100D01*
X124460000Y-91200000D02*
X124650000Y-91010000D01*
X144625900Y-88814100D02*
X142430000Y-91010000D01*
X160020000Y-80740000D02*
X159935000Y-80740000D01*
X138371800Y-82560000D02*
X125720000Y-82560000D01*
X125720000Y-82560000D02*
X125720000Y-83685100D01*
X139275000Y-70475000D02*
X139250000Y-70500000D01*
X138075000Y-70475000D02*
X139275000Y-70475000D01*
X158475000Y-82200000D02*
X157480000Y-82200000D01*
X137125000Y-71391400D02*
X137133200Y-71383200D01*
X124460000Y-91409800D02*
X124460000Y-91200000D01*
X125720000Y-89940000D02*
X125720000Y-83685100D01*
X159935000Y-80740000D02*
X158475000Y-82200000D01*
X137125000Y-81313200D02*
X137125000Y-71391400D01*
%TO.N,sda*%
X118100000Y-82560000D02*
X119225000Y-82560000D01*
%TO.N,scl*%
X119225000Y-80020000D02*
X120545000Y-78700000D01*
X156500000Y-76200000D02*
X157500100Y-76200000D01*
X150304900Y-70025000D02*
X150924600Y-70644700D01*
X150969700Y-70669700D02*
X156500000Y-76200000D01*
X137376600Y-70025000D02*
X150304900Y-70025000D01*
X128701600Y-78700000D02*
X137376600Y-70025000D01*
X118100000Y-80020000D02*
X119225000Y-80020000D01*
X120545000Y-78700000D02*
X128701600Y-78700000D01*
X157500100Y-76200000D02*
X157525100Y-76225000D01*
%TO.N,vout5*%
X138250000Y-74150000D02*
X138250000Y-71900000D01*
X157480000Y-80200000D02*
X144300000Y-80200000D01*
X144300000Y-80200000D02*
X138250000Y-74150000D01*
%TD*%
M02*
