%TF.GenerationSoftware,KiCad,Pcbnew,(7.0.0)*%
%TF.CreationDate,2023-05-29T03:25:23+05:30*%
%TF.ProjectId,sat-pcb,7361742d-7063-4622-9e6b-696361645f70,rev?*%
%TF.SameCoordinates,Original*%
%TF.FileFunction,AssemblyDrawing,Top*%
%FSLAX46Y46*%
G04 Gerber Fmt 4.6, Leading zero omitted, Abs format (unit mm)*
G04 Created by KiCad (PCBNEW (7.0.0)) date 2023-05-29 03:25:23*
%MOMM*%
%LPD*%
G01*
G04 APERTURE LIST*
%ADD10C,0.114000*%
%ADD11C,0.127000*%
%ADD12C,0.200000*%
%ADD13C,0.100000*%
G04 APERTURE END LIST*
D10*
%TO.C,VIN1*%
X138269209Y-73094286D02*
X139029209Y-72840952D01*
X139029209Y-72840952D02*
X138269209Y-72587619D01*
X139029209Y-72334285D02*
X138269209Y-72334285D01*
X139029209Y-71972380D02*
X138269209Y-71972380D01*
X138269209Y-71972380D02*
X139029209Y-71538094D01*
X139029209Y-71538094D02*
X138269209Y-71538094D01*
X139029209Y-70778095D02*
X139029209Y-71212381D01*
X139029209Y-70995238D02*
X138269209Y-70995238D01*
X138269209Y-70995238D02*
X138377780Y-71067619D01*
X138377780Y-71067619D02*
X138450161Y-71140000D01*
X138450161Y-71140000D02*
X138486352Y-71212381D01*
%TO.C,J3*%
X128069209Y-76328333D02*
X128612066Y-76328333D01*
X128612066Y-76328333D02*
X128720638Y-76364524D01*
X128720638Y-76364524D02*
X128793019Y-76436905D01*
X128793019Y-76436905D02*
X128829209Y-76545476D01*
X128829209Y-76545476D02*
X128829209Y-76617857D01*
X128069209Y-76038809D02*
X128069209Y-75568333D01*
X128069209Y-75568333D02*
X128358733Y-75821666D01*
X128358733Y-75821666D02*
X128358733Y-75713095D01*
X128358733Y-75713095D02*
X128394923Y-75640714D01*
X128394923Y-75640714D02*
X128431114Y-75604523D01*
X128431114Y-75604523D02*
X128503495Y-75568333D01*
X128503495Y-75568333D02*
X128684447Y-75568333D01*
X128684447Y-75568333D02*
X128756828Y-75604523D01*
X128756828Y-75604523D02*
X128793019Y-75640714D01*
X128793019Y-75640714D02*
X128829209Y-75713095D01*
X128829209Y-75713095D02*
X128829209Y-75930238D01*
X128829209Y-75930238D02*
X128793019Y-76002619D01*
X128793019Y-76002619D02*
X128756828Y-76038809D01*
D11*
%TO.C,A1*%
X118300000Y-66880000D02*
X161480000Y-66880000D01*
X164020000Y-69420000D02*
X164020000Y-89740000D01*
X115760000Y-89740000D02*
X115760000Y-69420000D01*
X161480000Y-92280000D02*
X118300000Y-92280000D01*
X164020000Y-69420000D02*
G75*
G03*
X161480000Y-66880000I-2540001J-1D01*
G01*
X118300000Y-66880000D02*
G75*
G03*
X115760000Y-69420000I1J-2540001D01*
G01*
X161480000Y-92280000D02*
G75*
G03*
X164020000Y-89740000I0J2540000D01*
G01*
X115760000Y-89740000D02*
G75*
G03*
X118300000Y-92280000I2540000J0D01*
G01*
D12*
X157770000Y-65770000D02*
G75*
G03*
X157770000Y-65770000I-100000J0D01*
G01*
X157770000Y-93390000D02*
G75*
G03*
X157770000Y-93390000I-100000J0D01*
G01*
D13*
%TO.C,VIN1*%
X139432500Y-71265000D02*
X139750000Y-71582500D01*
X137750000Y-71265000D02*
X139432500Y-71265000D01*
X139750000Y-71582500D02*
X139750000Y-72535000D01*
X139750000Y-72535000D02*
X137750000Y-72535000D01*
X137750000Y-72535000D02*
X137750000Y-71265000D01*
%TO.C,J3*%
X127915000Y-75392500D02*
X128232500Y-75075000D01*
X127915000Y-77075000D02*
X127915000Y-75392500D01*
X128232500Y-75075000D02*
X129185000Y-75075000D01*
X129185000Y-75075000D02*
X129185000Y-77075000D01*
X129185000Y-77075000D02*
X127915000Y-77075000D01*
%TD*%
M02*
