M48
; DRILL file {KiCad (7.0.0)} date Mon May 29 03:25:20 2023
; FORMAT={-:-/ absolute / inch / decimal}
; #@! TF.CreationDate,2023-05-29T03:25:20+05:30
; #@! TF.GenerationSoftware,Kicad,Pcbnew,(7.0.0)
; #@! TF.FileFunction,Plated,1,2,PTH
FMAT,2
INCH
; #@! TA.AperFunction,Plated,PTH,ComponentDrill
T1C0.0197
; #@! TA.AperFunction,Plated,PTH,ComponentDrill
T2C0.0315
; #@! TA.AperFunction,Plated,PTH,ComponentDrill
T3C0.0350
%
G90
G05
T1
X5.061Y-2.9754
X5.061Y-3.0148
X5.4429Y-2.8307
X5.4823Y-2.8307
T2
X4.6496Y-2.9504
X4.6496Y-3.0504
X4.6496Y-3.1504
X4.6496Y-3.2504
X4.9496Y-2.9504
X4.9496Y-3.0504
X4.9496Y-3.1504
X4.9496Y-3.2504
X6.2Y-3.0
X6.2Y-3.0787
X6.2Y-3.1575
X6.2Y-3.2362
X6.3Y-3.1
X6.3Y-3.1787
T3
X4.8075Y-2.6831
X4.8075Y-3.5831
X4.9075Y-2.6831
X4.9075Y-3.5831
X5.0075Y-2.6831
X5.0075Y-3.5831
X5.1075Y-2.6831
X5.1075Y-3.5831
X5.2075Y-2.6831
X5.2075Y-3.5831
X5.3075Y-2.6831
X5.3075Y-3.5831
X5.4075Y-2.6831
X5.4075Y-3.5831
X5.5075Y-2.6831
X5.5075Y-3.5831
X5.6075Y-2.6831
X5.6075Y-3.5831
X5.7075Y-2.6831
X5.7075Y-3.5831
X5.8075Y-2.6831
X5.8075Y-3.5831
X5.9075Y-2.6831
X5.9075Y-3.5831
X6.0075Y-2.6831
X6.0075Y-3.5831
X6.1075Y-2.6831
X6.1075Y-3.5831
X6.2075Y-2.6831
X6.2075Y-3.5831
T0
M30
