%TF.GenerationSoftware,KiCad,Pcbnew,(7.0.0)*%
%TF.CreationDate,2023-05-29T03:25:23+05:30*%
%TF.ProjectId,sat-pcb,7361742d-7063-4622-9e6b-696361645f70,rev?*%
%TF.SameCoordinates,Original*%
%TF.FileFunction,Legend,Bot*%
%TF.FilePolarity,Positive*%
%FSLAX46Y46*%
G04 Gerber Fmt 4.6, Leading zero omitted, Abs format (unit mm)*
G04 Created by KiCad (PCBNEW (7.0.0)) date 2023-05-29 03:25:23*
%MOMM*%
%LPD*%
G01*
G04 APERTURE LIST*
%ADD10C,0.150000*%
%ADD11C,0.120000*%
G04 APERTURE END LIST*
D10*
X154561904Y-86258571D02*
X154228571Y-86258571D01*
X154085714Y-86782380D02*
X154561904Y-86782380D01*
X154561904Y-86782380D02*
X154561904Y-85782380D01*
X154561904Y-85782380D02*
X154085714Y-85782380D01*
X153704761Y-86734761D02*
X153561904Y-86782380D01*
X153561904Y-86782380D02*
X153323809Y-86782380D01*
X153323809Y-86782380D02*
X153228571Y-86734761D01*
X153228571Y-86734761D02*
X153180952Y-86687142D01*
X153180952Y-86687142D02*
X153133333Y-86591904D01*
X153133333Y-86591904D02*
X153133333Y-86496666D01*
X153133333Y-86496666D02*
X153180952Y-86401428D01*
X153180952Y-86401428D02*
X153228571Y-86353809D01*
X153228571Y-86353809D02*
X153323809Y-86306190D01*
X153323809Y-86306190D02*
X153514285Y-86258571D01*
X153514285Y-86258571D02*
X153609523Y-86210952D01*
X153609523Y-86210952D02*
X153657142Y-86163333D01*
X153657142Y-86163333D02*
X153704761Y-86068095D01*
X153704761Y-86068095D02*
X153704761Y-85972857D01*
X153704761Y-85972857D02*
X153657142Y-85877619D01*
X153657142Y-85877619D02*
X153609523Y-85830000D01*
X153609523Y-85830000D02*
X153514285Y-85782380D01*
X153514285Y-85782380D02*
X153276190Y-85782380D01*
X153276190Y-85782380D02*
X153133333Y-85830000D01*
X152133333Y-86687142D02*
X152180952Y-86734761D01*
X152180952Y-86734761D02*
X152323809Y-86782380D01*
X152323809Y-86782380D02*
X152419047Y-86782380D01*
X152419047Y-86782380D02*
X152561904Y-86734761D01*
X152561904Y-86734761D02*
X152657142Y-86639523D01*
X152657142Y-86639523D02*
X152704761Y-86544285D01*
X152704761Y-86544285D02*
X152752380Y-86353809D01*
X152752380Y-86353809D02*
X152752380Y-86210952D01*
X152752380Y-86210952D02*
X152704761Y-86020476D01*
X152704761Y-86020476D02*
X152657142Y-85925238D01*
X152657142Y-85925238D02*
X152561904Y-85830000D01*
X152561904Y-85830000D02*
X152419047Y-85782380D01*
X152419047Y-85782380D02*
X152323809Y-85782380D01*
X152323809Y-85782380D02*
X152180952Y-85830000D01*
X152180952Y-85830000D02*
X152133333Y-85877619D01*
X150676190Y-86734761D02*
X150771428Y-86782380D01*
X150771428Y-86782380D02*
X150961904Y-86782380D01*
X150961904Y-86782380D02*
X151057142Y-86734761D01*
X151057142Y-86734761D02*
X151104761Y-86687142D01*
X151104761Y-86687142D02*
X151152380Y-86591904D01*
X151152380Y-86591904D02*
X151152380Y-86306190D01*
X151152380Y-86306190D02*
X151104761Y-86210952D01*
X151104761Y-86210952D02*
X151057142Y-86163333D01*
X151057142Y-86163333D02*
X150961904Y-86115714D01*
X150961904Y-86115714D02*
X150771428Y-86115714D01*
X150771428Y-86115714D02*
X150676190Y-86163333D01*
X150247618Y-86782380D02*
X150247618Y-86115714D01*
X150247618Y-86306190D02*
X150199999Y-86210952D01*
X150199999Y-86210952D02*
X150152380Y-86163333D01*
X150152380Y-86163333D02*
X150057142Y-86115714D01*
X150057142Y-86115714D02*
X149961904Y-86115714D01*
X149199999Y-86782380D02*
X149199999Y-86258571D01*
X149199999Y-86258571D02*
X149247618Y-86163333D01*
X149247618Y-86163333D02*
X149342856Y-86115714D01*
X149342856Y-86115714D02*
X149533332Y-86115714D01*
X149533332Y-86115714D02*
X149628570Y-86163333D01*
X149199999Y-86734761D02*
X149295237Y-86782380D01*
X149295237Y-86782380D02*
X149533332Y-86782380D01*
X149533332Y-86782380D02*
X149628570Y-86734761D01*
X149628570Y-86734761D02*
X149676189Y-86639523D01*
X149676189Y-86639523D02*
X149676189Y-86544285D01*
X149676189Y-86544285D02*
X149628570Y-86449047D01*
X149628570Y-86449047D02*
X149533332Y-86401428D01*
X149533332Y-86401428D02*
X149295237Y-86401428D01*
X149295237Y-86401428D02*
X149199999Y-86353809D01*
X148771427Y-86734761D02*
X148676189Y-86782380D01*
X148676189Y-86782380D02*
X148485713Y-86782380D01*
X148485713Y-86782380D02*
X148390475Y-86734761D01*
X148390475Y-86734761D02*
X148342856Y-86639523D01*
X148342856Y-86639523D02*
X148342856Y-86591904D01*
X148342856Y-86591904D02*
X148390475Y-86496666D01*
X148390475Y-86496666D02*
X148485713Y-86449047D01*
X148485713Y-86449047D02*
X148628570Y-86449047D01*
X148628570Y-86449047D02*
X148723808Y-86401428D01*
X148723808Y-86401428D02*
X148771427Y-86306190D01*
X148771427Y-86306190D02*
X148771427Y-86258571D01*
X148771427Y-86258571D02*
X148723808Y-86163333D01*
X148723808Y-86163333D02*
X148628570Y-86115714D01*
X148628570Y-86115714D02*
X148485713Y-86115714D01*
X148485713Y-86115714D02*
X148390475Y-86163333D01*
X147485713Y-86734761D02*
X147580951Y-86782380D01*
X147580951Y-86782380D02*
X147771427Y-86782380D01*
X147771427Y-86782380D02*
X147866665Y-86734761D01*
X147866665Y-86734761D02*
X147914284Y-86687142D01*
X147914284Y-86687142D02*
X147961903Y-86591904D01*
X147961903Y-86591904D02*
X147961903Y-86306190D01*
X147961903Y-86306190D02*
X147914284Y-86210952D01*
X147914284Y-86210952D02*
X147866665Y-86163333D01*
X147866665Y-86163333D02*
X147771427Y-86115714D01*
X147771427Y-86115714D02*
X147580951Y-86115714D01*
X147580951Y-86115714D02*
X147485713Y-86163333D01*
X147057141Y-86782380D02*
X147057141Y-86115714D01*
X147057141Y-85782380D02*
X147104760Y-85830000D01*
X147104760Y-85830000D02*
X147057141Y-85877619D01*
X147057141Y-85877619D02*
X147009522Y-85830000D01*
X147009522Y-85830000D02*
X147057141Y-85782380D01*
X147057141Y-85782380D02*
X147057141Y-85877619D01*
X146028570Y-86496666D02*
X145552380Y-86496666D01*
X146123808Y-86782380D02*
X145790475Y-85782380D01*
X145790475Y-85782380D02*
X145457142Y-86782380D01*
X144695237Y-86734761D02*
X144790475Y-86782380D01*
X144790475Y-86782380D02*
X144980951Y-86782380D01*
X144980951Y-86782380D02*
X145076189Y-86734761D01*
X145076189Y-86734761D02*
X145123808Y-86687142D01*
X145123808Y-86687142D02*
X145171427Y-86591904D01*
X145171427Y-86591904D02*
X145171427Y-86306190D01*
X145171427Y-86306190D02*
X145123808Y-86210952D01*
X145123808Y-86210952D02*
X145076189Y-86163333D01*
X145076189Y-86163333D02*
X144980951Y-86115714D01*
X144980951Y-86115714D02*
X144790475Y-86115714D01*
X144790475Y-86115714D02*
X144695237Y-86163333D01*
X143838094Y-86734761D02*
X143933332Y-86782380D01*
X143933332Y-86782380D02*
X144123808Y-86782380D01*
X144123808Y-86782380D02*
X144219046Y-86734761D01*
X144219046Y-86734761D02*
X144266665Y-86687142D01*
X144266665Y-86687142D02*
X144314284Y-86591904D01*
X144314284Y-86591904D02*
X144314284Y-86306190D01*
X144314284Y-86306190D02*
X144266665Y-86210952D01*
X144266665Y-86210952D02*
X144219046Y-86163333D01*
X144219046Y-86163333D02*
X144123808Y-86115714D01*
X144123808Y-86115714D02*
X143933332Y-86115714D01*
X143933332Y-86115714D02*
X143838094Y-86163333D01*
X142980951Y-86115714D02*
X142980951Y-86782380D01*
X143409522Y-86115714D02*
X143409522Y-86639523D01*
X143409522Y-86639523D02*
X143361903Y-86734761D01*
X143361903Y-86734761D02*
X143266665Y-86782380D01*
X143266665Y-86782380D02*
X143123808Y-86782380D01*
X143123808Y-86782380D02*
X143028570Y-86734761D01*
X143028570Y-86734761D02*
X142980951Y-86687142D01*
X142504760Y-86782380D02*
X142504760Y-86115714D01*
X142504760Y-86306190D02*
X142457141Y-86210952D01*
X142457141Y-86210952D02*
X142409522Y-86163333D01*
X142409522Y-86163333D02*
X142314284Y-86115714D01*
X142314284Y-86115714D02*
X142219046Y-86115714D01*
X141457141Y-86782380D02*
X141457141Y-86258571D01*
X141457141Y-86258571D02*
X141504760Y-86163333D01*
X141504760Y-86163333D02*
X141599998Y-86115714D01*
X141599998Y-86115714D02*
X141790474Y-86115714D01*
X141790474Y-86115714D02*
X141885712Y-86163333D01*
X141457141Y-86734761D02*
X141552379Y-86782380D01*
X141552379Y-86782380D02*
X141790474Y-86782380D01*
X141790474Y-86782380D02*
X141885712Y-86734761D01*
X141885712Y-86734761D02*
X141933331Y-86639523D01*
X141933331Y-86639523D02*
X141933331Y-86544285D01*
X141933331Y-86544285D02*
X141885712Y-86449047D01*
X141885712Y-86449047D02*
X141790474Y-86401428D01*
X141790474Y-86401428D02*
X141552379Y-86401428D01*
X141552379Y-86401428D02*
X141457141Y-86353809D01*
X141123807Y-86115714D02*
X140742855Y-86115714D01*
X140980950Y-85782380D02*
X140980950Y-86639523D01*
X140980950Y-86639523D02*
X140933331Y-86734761D01*
X140933331Y-86734761D02*
X140838093Y-86782380D01*
X140838093Y-86782380D02*
X140742855Y-86782380D01*
X140028569Y-86734761D02*
X140123807Y-86782380D01*
X140123807Y-86782380D02*
X140314283Y-86782380D01*
X140314283Y-86782380D02*
X140409521Y-86734761D01*
X140409521Y-86734761D02*
X140457140Y-86639523D01*
X140457140Y-86639523D02*
X140457140Y-86258571D01*
X140457140Y-86258571D02*
X140409521Y-86163333D01*
X140409521Y-86163333D02*
X140314283Y-86115714D01*
X140314283Y-86115714D02*
X140123807Y-86115714D01*
X140123807Y-86115714D02*
X140028569Y-86163333D01*
X140028569Y-86163333D02*
X139980950Y-86258571D01*
X139980950Y-86258571D02*
X139980950Y-86353809D01*
X139980950Y-86353809D02*
X140457140Y-86449047D01*
X138952378Y-86782380D02*
X138952378Y-85782380D01*
X138476188Y-86115714D02*
X138476188Y-86782380D01*
X138476188Y-86210952D02*
X138428569Y-86163333D01*
X138428569Y-86163333D02*
X138333331Y-86115714D01*
X138333331Y-86115714D02*
X138190474Y-86115714D01*
X138190474Y-86115714D02*
X138095236Y-86163333D01*
X138095236Y-86163333D02*
X138047617Y-86258571D01*
X138047617Y-86258571D02*
X138047617Y-86782380D01*
X137714283Y-86115714D02*
X137333331Y-86115714D01*
X137571426Y-85782380D02*
X137571426Y-86639523D01*
X137571426Y-86639523D02*
X137523807Y-86734761D01*
X137523807Y-86734761D02*
X137428569Y-86782380D01*
X137428569Y-86782380D02*
X137333331Y-86782380D01*
X136619045Y-86734761D02*
X136714283Y-86782380D01*
X136714283Y-86782380D02*
X136904759Y-86782380D01*
X136904759Y-86782380D02*
X136999997Y-86734761D01*
X136999997Y-86734761D02*
X137047616Y-86639523D01*
X137047616Y-86639523D02*
X137047616Y-86258571D01*
X137047616Y-86258571D02*
X136999997Y-86163333D01*
X136999997Y-86163333D02*
X136904759Y-86115714D01*
X136904759Y-86115714D02*
X136714283Y-86115714D01*
X136714283Y-86115714D02*
X136619045Y-86163333D01*
X136619045Y-86163333D02*
X136571426Y-86258571D01*
X136571426Y-86258571D02*
X136571426Y-86353809D01*
X136571426Y-86353809D02*
X137047616Y-86449047D01*
X136142854Y-86782380D02*
X136142854Y-86115714D01*
X136142854Y-86306190D02*
X136095235Y-86210952D01*
X136095235Y-86210952D02*
X136047616Y-86163333D01*
X136047616Y-86163333D02*
X135952378Y-86115714D01*
X135952378Y-86115714D02*
X135857140Y-86115714D01*
X135523806Y-86115714D02*
X135523806Y-86782380D01*
X135523806Y-86210952D02*
X135476187Y-86163333D01*
X135476187Y-86163333D02*
X135380949Y-86115714D01*
X135380949Y-86115714D02*
X135238092Y-86115714D01*
X135238092Y-86115714D02*
X135142854Y-86163333D01*
X135142854Y-86163333D02*
X135095235Y-86258571D01*
X135095235Y-86258571D02*
X135095235Y-86782380D01*
X134238092Y-86734761D02*
X134333330Y-86782380D01*
X134333330Y-86782380D02*
X134523806Y-86782380D01*
X134523806Y-86782380D02*
X134619044Y-86734761D01*
X134619044Y-86734761D02*
X134666663Y-86639523D01*
X134666663Y-86639523D02*
X134666663Y-86258571D01*
X134666663Y-86258571D02*
X134619044Y-86163333D01*
X134619044Y-86163333D02*
X134523806Y-86115714D01*
X134523806Y-86115714D02*
X134333330Y-86115714D01*
X134333330Y-86115714D02*
X134238092Y-86163333D01*
X134238092Y-86163333D02*
X134190473Y-86258571D01*
X134190473Y-86258571D02*
X134190473Y-86353809D01*
X134190473Y-86353809D02*
X134666663Y-86449047D01*
X133904758Y-86115714D02*
X133523806Y-86115714D01*
X133761901Y-85782380D02*
X133761901Y-86639523D01*
X133761901Y-86639523D02*
X133714282Y-86734761D01*
X133714282Y-86734761D02*
X133619044Y-86782380D01*
X133619044Y-86782380D02*
X133523806Y-86782380D01*
X132019044Y-86687142D02*
X132066663Y-86734761D01*
X132066663Y-86734761D02*
X132209520Y-86782380D01*
X132209520Y-86782380D02*
X132304758Y-86782380D01*
X132304758Y-86782380D02*
X132447615Y-86734761D01*
X132447615Y-86734761D02*
X132542853Y-86639523D01*
X132542853Y-86639523D02*
X132590472Y-86544285D01*
X132590472Y-86544285D02*
X132638091Y-86353809D01*
X132638091Y-86353809D02*
X132638091Y-86210952D01*
X132638091Y-86210952D02*
X132590472Y-86020476D01*
X132590472Y-86020476D02*
X132542853Y-85925238D01*
X132542853Y-85925238D02*
X132447615Y-85830000D01*
X132447615Y-85830000D02*
X132304758Y-85782380D01*
X132304758Y-85782380D02*
X132209520Y-85782380D01*
X132209520Y-85782380D02*
X132066663Y-85830000D01*
X132066663Y-85830000D02*
X132019044Y-85877619D01*
X131447615Y-86782380D02*
X131542853Y-86734761D01*
X131542853Y-86734761D02*
X131590472Y-86639523D01*
X131590472Y-86639523D02*
X131590472Y-85782380D01*
X130923805Y-86782380D02*
X131019043Y-86734761D01*
X131019043Y-86734761D02*
X131066662Y-86687142D01*
X131066662Y-86687142D02*
X131114281Y-86591904D01*
X131114281Y-86591904D02*
X131114281Y-86306190D01*
X131114281Y-86306190D02*
X131066662Y-86210952D01*
X131066662Y-86210952D02*
X131019043Y-86163333D01*
X131019043Y-86163333D02*
X130923805Y-86115714D01*
X130923805Y-86115714D02*
X130780948Y-86115714D01*
X130780948Y-86115714D02*
X130685710Y-86163333D01*
X130685710Y-86163333D02*
X130638091Y-86210952D01*
X130638091Y-86210952D02*
X130590472Y-86306190D01*
X130590472Y-86306190D02*
X130590472Y-86591904D01*
X130590472Y-86591904D02*
X130638091Y-86687142D01*
X130638091Y-86687142D02*
X130685710Y-86734761D01*
X130685710Y-86734761D02*
X130780948Y-86782380D01*
X130780948Y-86782380D02*
X130923805Y-86782380D01*
X129733329Y-86734761D02*
X129828567Y-86782380D01*
X129828567Y-86782380D02*
X130019043Y-86782380D01*
X130019043Y-86782380D02*
X130114281Y-86734761D01*
X130114281Y-86734761D02*
X130161900Y-86687142D01*
X130161900Y-86687142D02*
X130209519Y-86591904D01*
X130209519Y-86591904D02*
X130209519Y-86306190D01*
X130209519Y-86306190D02*
X130161900Y-86210952D01*
X130161900Y-86210952D02*
X130114281Y-86163333D01*
X130114281Y-86163333D02*
X130019043Y-86115714D01*
X130019043Y-86115714D02*
X129828567Y-86115714D01*
X129828567Y-86115714D02*
X129733329Y-86163333D01*
X129304757Y-86782380D02*
X129304757Y-85782380D01*
X129209519Y-86401428D02*
X128923805Y-86782380D01*
X128923805Y-86115714D02*
X129304757Y-86496666D01*
X155709523Y-76044761D02*
X155566666Y-76092380D01*
X155566666Y-76092380D02*
X155328571Y-76092380D01*
X155328571Y-76092380D02*
X155233333Y-76044761D01*
X155233333Y-76044761D02*
X155185714Y-75997142D01*
X155185714Y-75997142D02*
X155138095Y-75901904D01*
X155138095Y-75901904D02*
X155138095Y-75806666D01*
X155138095Y-75806666D02*
X155185714Y-75711428D01*
X155185714Y-75711428D02*
X155233333Y-75663809D01*
X155233333Y-75663809D02*
X155328571Y-75616190D01*
X155328571Y-75616190D02*
X155519047Y-75568571D01*
X155519047Y-75568571D02*
X155614285Y-75520952D01*
X155614285Y-75520952D02*
X155661904Y-75473333D01*
X155661904Y-75473333D02*
X155709523Y-75378095D01*
X155709523Y-75378095D02*
X155709523Y-75282857D01*
X155709523Y-75282857D02*
X155661904Y-75187619D01*
X155661904Y-75187619D02*
X155614285Y-75140000D01*
X155614285Y-75140000D02*
X155519047Y-75092380D01*
X155519047Y-75092380D02*
X155280952Y-75092380D01*
X155280952Y-75092380D02*
X155138095Y-75140000D01*
X154138095Y-75997142D02*
X154185714Y-76044761D01*
X154185714Y-76044761D02*
X154328571Y-76092380D01*
X154328571Y-76092380D02*
X154423809Y-76092380D01*
X154423809Y-76092380D02*
X154566666Y-76044761D01*
X154566666Y-76044761D02*
X154661904Y-75949523D01*
X154661904Y-75949523D02*
X154709523Y-75854285D01*
X154709523Y-75854285D02*
X154757142Y-75663809D01*
X154757142Y-75663809D02*
X154757142Y-75520952D01*
X154757142Y-75520952D02*
X154709523Y-75330476D01*
X154709523Y-75330476D02*
X154661904Y-75235238D01*
X154661904Y-75235238D02*
X154566666Y-75140000D01*
X154566666Y-75140000D02*
X154423809Y-75092380D01*
X154423809Y-75092380D02*
X154328571Y-75092380D01*
X154328571Y-75092380D02*
X154185714Y-75140000D01*
X154185714Y-75140000D02*
X154138095Y-75187619D01*
X153233333Y-76092380D02*
X153709523Y-76092380D01*
X153709523Y-76092380D02*
X153709523Y-75092380D01*
X155709523Y-79284761D02*
X155566666Y-79332380D01*
X155566666Y-79332380D02*
X155328571Y-79332380D01*
X155328571Y-79332380D02*
X155233333Y-79284761D01*
X155233333Y-79284761D02*
X155185714Y-79237142D01*
X155185714Y-79237142D02*
X155138095Y-79141904D01*
X155138095Y-79141904D02*
X155138095Y-79046666D01*
X155138095Y-79046666D02*
X155185714Y-78951428D01*
X155185714Y-78951428D02*
X155233333Y-78903809D01*
X155233333Y-78903809D02*
X155328571Y-78856190D01*
X155328571Y-78856190D02*
X155519047Y-78808571D01*
X155519047Y-78808571D02*
X155614285Y-78760952D01*
X155614285Y-78760952D02*
X155661904Y-78713333D01*
X155661904Y-78713333D02*
X155709523Y-78618095D01*
X155709523Y-78618095D02*
X155709523Y-78522857D01*
X155709523Y-78522857D02*
X155661904Y-78427619D01*
X155661904Y-78427619D02*
X155614285Y-78380000D01*
X155614285Y-78380000D02*
X155519047Y-78332380D01*
X155519047Y-78332380D02*
X155280952Y-78332380D01*
X155280952Y-78332380D02*
X155138095Y-78380000D01*
X154709523Y-79332380D02*
X154709523Y-78332380D01*
X154709523Y-78332380D02*
X154471428Y-78332380D01*
X154471428Y-78332380D02*
X154328571Y-78380000D01*
X154328571Y-78380000D02*
X154233333Y-78475238D01*
X154233333Y-78475238D02*
X154185714Y-78570476D01*
X154185714Y-78570476D02*
X154138095Y-78760952D01*
X154138095Y-78760952D02*
X154138095Y-78903809D01*
X154138095Y-78903809D02*
X154185714Y-79094285D01*
X154185714Y-79094285D02*
X154233333Y-79189523D01*
X154233333Y-79189523D02*
X154328571Y-79284761D01*
X154328571Y-79284761D02*
X154471428Y-79332380D01*
X154471428Y-79332380D02*
X154709523Y-79332380D01*
X153757142Y-79046666D02*
X153280952Y-79046666D01*
X153852380Y-79332380D02*
X153519047Y-78332380D01*
X153519047Y-78332380D02*
X153185714Y-79332380D01*
X146355952Y-84784761D02*
X146451190Y-84832380D01*
X146451190Y-84832380D02*
X146641666Y-84832380D01*
X146641666Y-84832380D02*
X146736904Y-84784761D01*
X146736904Y-84784761D02*
X146784523Y-84689523D01*
X146784523Y-84689523D02*
X146784523Y-84308571D01*
X146784523Y-84308571D02*
X146736904Y-84213333D01*
X146736904Y-84213333D02*
X146641666Y-84165714D01*
X146641666Y-84165714D02*
X146451190Y-84165714D01*
X146451190Y-84165714D02*
X146355952Y-84213333D01*
X146355952Y-84213333D02*
X146308333Y-84308571D01*
X146308333Y-84308571D02*
X146308333Y-84403809D01*
X146308333Y-84403809D02*
X146784523Y-84499047D01*
X145927380Y-84784761D02*
X145832142Y-84832380D01*
X145832142Y-84832380D02*
X145641666Y-84832380D01*
X145641666Y-84832380D02*
X145546428Y-84784761D01*
X145546428Y-84784761D02*
X145498809Y-84689523D01*
X145498809Y-84689523D02*
X145498809Y-84641904D01*
X145498809Y-84641904D02*
X145546428Y-84546666D01*
X145546428Y-84546666D02*
X145641666Y-84499047D01*
X145641666Y-84499047D02*
X145784523Y-84499047D01*
X145784523Y-84499047D02*
X145879761Y-84451428D01*
X145879761Y-84451428D02*
X145927380Y-84356190D01*
X145927380Y-84356190D02*
X145927380Y-84308571D01*
X145927380Y-84308571D02*
X145879761Y-84213333D01*
X145879761Y-84213333D02*
X145784523Y-84165714D01*
X145784523Y-84165714D02*
X145641666Y-84165714D01*
X145641666Y-84165714D02*
X145546428Y-84213333D01*
X144641666Y-84784761D02*
X144736904Y-84832380D01*
X144736904Y-84832380D02*
X144927380Y-84832380D01*
X144927380Y-84832380D02*
X145022618Y-84784761D01*
X145022618Y-84784761D02*
X145070237Y-84737142D01*
X145070237Y-84737142D02*
X145117856Y-84641904D01*
X145117856Y-84641904D02*
X145117856Y-84356190D01*
X145117856Y-84356190D02*
X145070237Y-84260952D01*
X145070237Y-84260952D02*
X145022618Y-84213333D01*
X145022618Y-84213333D02*
X144927380Y-84165714D01*
X144927380Y-84165714D02*
X144736904Y-84165714D01*
X144736904Y-84165714D02*
X144641666Y-84213333D01*
X143784523Y-84784761D02*
X143879761Y-84832380D01*
X143879761Y-84832380D02*
X144070237Y-84832380D01*
X144070237Y-84832380D02*
X144165475Y-84784761D01*
X144165475Y-84784761D02*
X144213094Y-84737142D01*
X144213094Y-84737142D02*
X144260713Y-84641904D01*
X144260713Y-84641904D02*
X144260713Y-84356190D01*
X144260713Y-84356190D02*
X144213094Y-84260952D01*
X144213094Y-84260952D02*
X144165475Y-84213333D01*
X144165475Y-84213333D02*
X144070237Y-84165714D01*
X144070237Y-84165714D02*
X143879761Y-84165714D01*
X143879761Y-84165714D02*
X143784523Y-84213333D01*
X143355951Y-84832380D02*
X143355951Y-84165714D01*
X143355951Y-84356190D02*
X143308332Y-84260952D01*
X143308332Y-84260952D02*
X143260713Y-84213333D01*
X143260713Y-84213333D02*
X143165475Y-84165714D01*
X143165475Y-84165714D02*
X143070237Y-84165714D01*
X142308332Y-84832380D02*
X142308332Y-84308571D01*
X142308332Y-84308571D02*
X142355951Y-84213333D01*
X142355951Y-84213333D02*
X142451189Y-84165714D01*
X142451189Y-84165714D02*
X142641665Y-84165714D01*
X142641665Y-84165714D02*
X142736903Y-84213333D01*
X142308332Y-84784761D02*
X142403570Y-84832380D01*
X142403570Y-84832380D02*
X142641665Y-84832380D01*
X142641665Y-84832380D02*
X142736903Y-84784761D01*
X142736903Y-84784761D02*
X142784522Y-84689523D01*
X142784522Y-84689523D02*
X142784522Y-84594285D01*
X142784522Y-84594285D02*
X142736903Y-84499047D01*
X142736903Y-84499047D02*
X142641665Y-84451428D01*
X142641665Y-84451428D02*
X142403570Y-84451428D01*
X142403570Y-84451428D02*
X142308332Y-84403809D01*
X141879760Y-84784761D02*
X141784522Y-84832380D01*
X141784522Y-84832380D02*
X141594046Y-84832380D01*
X141594046Y-84832380D02*
X141498808Y-84784761D01*
X141498808Y-84784761D02*
X141451189Y-84689523D01*
X141451189Y-84689523D02*
X141451189Y-84641904D01*
X141451189Y-84641904D02*
X141498808Y-84546666D01*
X141498808Y-84546666D02*
X141594046Y-84499047D01*
X141594046Y-84499047D02*
X141736903Y-84499047D01*
X141736903Y-84499047D02*
X141832141Y-84451428D01*
X141832141Y-84451428D02*
X141879760Y-84356190D01*
X141879760Y-84356190D02*
X141879760Y-84308571D01*
X141879760Y-84308571D02*
X141832141Y-84213333D01*
X141832141Y-84213333D02*
X141736903Y-84165714D01*
X141736903Y-84165714D02*
X141594046Y-84165714D01*
X141594046Y-84165714D02*
X141498808Y-84213333D01*
X140594046Y-84784761D02*
X140689284Y-84832380D01*
X140689284Y-84832380D02*
X140879760Y-84832380D01*
X140879760Y-84832380D02*
X140974998Y-84784761D01*
X140974998Y-84784761D02*
X141022617Y-84737142D01*
X141022617Y-84737142D02*
X141070236Y-84641904D01*
X141070236Y-84641904D02*
X141070236Y-84356190D01*
X141070236Y-84356190D02*
X141022617Y-84260952D01*
X141022617Y-84260952D02*
X140974998Y-84213333D01*
X140974998Y-84213333D02*
X140879760Y-84165714D01*
X140879760Y-84165714D02*
X140689284Y-84165714D01*
X140689284Y-84165714D02*
X140594046Y-84213333D01*
X140165474Y-84832380D02*
X140165474Y-84165714D01*
X140165474Y-83832380D02*
X140213093Y-83880000D01*
X140213093Y-83880000D02*
X140165474Y-83927619D01*
X140165474Y-83927619D02*
X140117855Y-83880000D01*
X140117855Y-83880000D02*
X140165474Y-83832380D01*
X140165474Y-83832380D02*
X140165474Y-83927619D01*
X139689284Y-84737142D02*
X139641665Y-84784761D01*
X139641665Y-84784761D02*
X139689284Y-84832380D01*
X139689284Y-84832380D02*
X139736903Y-84784761D01*
X139736903Y-84784761D02*
X139689284Y-84737142D01*
X139689284Y-84737142D02*
X139689284Y-84832380D01*
X139213094Y-84832380D02*
X139213094Y-84165714D01*
X139213094Y-83832380D02*
X139260713Y-83880000D01*
X139260713Y-83880000D02*
X139213094Y-83927619D01*
X139213094Y-83927619D02*
X139165475Y-83880000D01*
X139165475Y-83880000D02*
X139213094Y-83832380D01*
X139213094Y-83832380D02*
X139213094Y-83927619D01*
X138736904Y-84165714D02*
X138736904Y-84832380D01*
X138736904Y-84260952D02*
X138689285Y-84213333D01*
X138689285Y-84213333D02*
X138594047Y-84165714D01*
X138594047Y-84165714D02*
X138451190Y-84165714D01*
X138451190Y-84165714D02*
X138355952Y-84213333D01*
X138355952Y-84213333D02*
X138308333Y-84308571D01*
X138308333Y-84308571D02*
X138308333Y-84832380D01*
X155654761Y-80087380D02*
X155321428Y-81087380D01*
X155321428Y-81087380D02*
X154988095Y-80087380D01*
X154083333Y-80992142D02*
X154130952Y-81039761D01*
X154130952Y-81039761D02*
X154273809Y-81087380D01*
X154273809Y-81087380D02*
X154369047Y-81087380D01*
X154369047Y-81087380D02*
X154511904Y-81039761D01*
X154511904Y-81039761D02*
X154607142Y-80944523D01*
X154607142Y-80944523D02*
X154654761Y-80849285D01*
X154654761Y-80849285D02*
X154702380Y-80658809D01*
X154702380Y-80658809D02*
X154702380Y-80515952D01*
X154702380Y-80515952D02*
X154654761Y-80325476D01*
X154654761Y-80325476D02*
X154607142Y-80230238D01*
X154607142Y-80230238D02*
X154511904Y-80135000D01*
X154511904Y-80135000D02*
X154369047Y-80087380D01*
X154369047Y-80087380D02*
X154273809Y-80087380D01*
X154273809Y-80087380D02*
X154130952Y-80135000D01*
X154130952Y-80135000D02*
X154083333Y-80182619D01*
X153083333Y-80992142D02*
X153130952Y-81039761D01*
X153130952Y-81039761D02*
X153273809Y-81087380D01*
X153273809Y-81087380D02*
X153369047Y-81087380D01*
X153369047Y-81087380D02*
X153511904Y-81039761D01*
X153511904Y-81039761D02*
X153607142Y-80944523D01*
X153607142Y-80944523D02*
X153654761Y-80849285D01*
X153654761Y-80849285D02*
X153702380Y-80658809D01*
X153702380Y-80658809D02*
X153702380Y-80515952D01*
X153702380Y-80515952D02*
X153654761Y-80325476D01*
X153654761Y-80325476D02*
X153607142Y-80230238D01*
X153607142Y-80230238D02*
X153511904Y-80135000D01*
X153511904Y-80135000D02*
X153369047Y-80087380D01*
X153369047Y-80087380D02*
X153273809Y-80087380D01*
X153273809Y-80087380D02*
X153130952Y-80135000D01*
X153130952Y-80135000D02*
X153083333Y-80182619D01*
X154988095Y-81755000D02*
X155083333Y-81707380D01*
X155083333Y-81707380D02*
X155226190Y-81707380D01*
X155226190Y-81707380D02*
X155369047Y-81755000D01*
X155369047Y-81755000D02*
X155464285Y-81850238D01*
X155464285Y-81850238D02*
X155511904Y-81945476D01*
X155511904Y-81945476D02*
X155559523Y-82135952D01*
X155559523Y-82135952D02*
X155559523Y-82278809D01*
X155559523Y-82278809D02*
X155511904Y-82469285D01*
X155511904Y-82469285D02*
X155464285Y-82564523D01*
X155464285Y-82564523D02*
X155369047Y-82659761D01*
X155369047Y-82659761D02*
X155226190Y-82707380D01*
X155226190Y-82707380D02*
X155130952Y-82707380D01*
X155130952Y-82707380D02*
X154988095Y-82659761D01*
X154988095Y-82659761D02*
X154940476Y-82612142D01*
X154940476Y-82612142D02*
X154940476Y-82278809D01*
X154940476Y-82278809D02*
X155130952Y-82278809D01*
X154511904Y-82707380D02*
X154511904Y-81707380D01*
X154511904Y-81707380D02*
X153940476Y-82707380D01*
X153940476Y-82707380D02*
X153940476Y-81707380D01*
X153464285Y-82707380D02*
X153464285Y-81707380D01*
X153464285Y-81707380D02*
X153226190Y-81707380D01*
X153226190Y-81707380D02*
X153083333Y-81755000D01*
X153083333Y-81755000D02*
X152988095Y-81850238D01*
X152988095Y-81850238D02*
X152940476Y-81945476D01*
X152940476Y-81945476D02*
X152892857Y-82135952D01*
X152892857Y-82135952D02*
X152892857Y-82278809D01*
X152892857Y-82278809D02*
X152940476Y-82469285D01*
X152940476Y-82469285D02*
X152988095Y-82564523D01*
X152988095Y-82564523D02*
X153083333Y-82659761D01*
X153083333Y-82659761D02*
X153226190Y-82707380D01*
X153226190Y-82707380D02*
X153464285Y-82707380D01*
X139263095Y-69580000D02*
X139358333Y-69532380D01*
X139358333Y-69532380D02*
X139501190Y-69532380D01*
X139501190Y-69532380D02*
X139644047Y-69580000D01*
X139644047Y-69580000D02*
X139739285Y-69675238D01*
X139739285Y-69675238D02*
X139786904Y-69770476D01*
X139786904Y-69770476D02*
X139834523Y-69960952D01*
X139834523Y-69960952D02*
X139834523Y-70103809D01*
X139834523Y-70103809D02*
X139786904Y-70294285D01*
X139786904Y-70294285D02*
X139739285Y-70389523D01*
X139739285Y-70389523D02*
X139644047Y-70484761D01*
X139644047Y-70484761D02*
X139501190Y-70532380D01*
X139501190Y-70532380D02*
X139405952Y-70532380D01*
X139405952Y-70532380D02*
X139263095Y-70484761D01*
X139263095Y-70484761D02*
X139215476Y-70437142D01*
X139215476Y-70437142D02*
X139215476Y-70103809D01*
X139215476Y-70103809D02*
X139405952Y-70103809D01*
X137710714Y-69532380D02*
X138186904Y-69532380D01*
X138186904Y-69532380D02*
X138234523Y-70008571D01*
X138234523Y-70008571D02*
X138186904Y-69960952D01*
X138186904Y-69960952D02*
X138091666Y-69913333D01*
X138091666Y-69913333D02*
X137853571Y-69913333D01*
X137853571Y-69913333D02*
X137758333Y-69960952D01*
X137758333Y-69960952D02*
X137710714Y-70008571D01*
X137710714Y-70008571D02*
X137663095Y-70103809D01*
X137663095Y-70103809D02*
X137663095Y-70341904D01*
X137663095Y-70341904D02*
X137710714Y-70437142D01*
X137710714Y-70437142D02*
X137758333Y-70484761D01*
X137758333Y-70484761D02*
X137853571Y-70532380D01*
X137853571Y-70532380D02*
X138091666Y-70532380D01*
X138091666Y-70532380D02*
X138186904Y-70484761D01*
X138186904Y-70484761D02*
X138234523Y-70437142D01*
%TO.C,U1*%
X122671904Y-71977380D02*
X122671904Y-72786904D01*
X122671904Y-72786904D02*
X122624285Y-72882142D01*
X122624285Y-72882142D02*
X122576666Y-72929761D01*
X122576666Y-72929761D02*
X122481428Y-72977380D01*
X122481428Y-72977380D02*
X122290952Y-72977380D01*
X122290952Y-72977380D02*
X122195714Y-72929761D01*
X122195714Y-72929761D02*
X122148095Y-72882142D01*
X122148095Y-72882142D02*
X122100476Y-72786904D01*
X122100476Y-72786904D02*
X122100476Y-71977380D01*
X121100476Y-72977380D02*
X121671904Y-72977380D01*
X121386190Y-72977380D02*
X121386190Y-71977380D01*
X121386190Y-71977380D02*
X121481428Y-72120238D01*
X121481428Y-72120238D02*
X121576666Y-72215476D01*
X121576666Y-72215476D02*
X121671904Y-72263095D01*
%TO.C,Jbattery1*%
X162142380Y-77296427D02*
X162856666Y-77296427D01*
X162856666Y-77296427D02*
X162999523Y-77248808D01*
X162999523Y-77248808D02*
X163094761Y-77153570D01*
X163094761Y-77153570D02*
X163142380Y-77010713D01*
X163142380Y-77010713D02*
X163142380Y-76915475D01*
X163142380Y-77772618D02*
X162142380Y-77772618D01*
X162523333Y-77772618D02*
X162475714Y-77867856D01*
X162475714Y-77867856D02*
X162475714Y-78058332D01*
X162475714Y-78058332D02*
X162523333Y-78153570D01*
X162523333Y-78153570D02*
X162570952Y-78201189D01*
X162570952Y-78201189D02*
X162666190Y-78248808D01*
X162666190Y-78248808D02*
X162951904Y-78248808D01*
X162951904Y-78248808D02*
X163047142Y-78201189D01*
X163047142Y-78201189D02*
X163094761Y-78153570D01*
X163094761Y-78153570D02*
X163142380Y-78058332D01*
X163142380Y-78058332D02*
X163142380Y-77867856D01*
X163142380Y-77867856D02*
X163094761Y-77772618D01*
X163142380Y-79105951D02*
X162618571Y-79105951D01*
X162618571Y-79105951D02*
X162523333Y-79058332D01*
X162523333Y-79058332D02*
X162475714Y-78963094D01*
X162475714Y-78963094D02*
X162475714Y-78772618D01*
X162475714Y-78772618D02*
X162523333Y-78677380D01*
X163094761Y-79105951D02*
X163142380Y-79010713D01*
X163142380Y-79010713D02*
X163142380Y-78772618D01*
X163142380Y-78772618D02*
X163094761Y-78677380D01*
X163094761Y-78677380D02*
X162999523Y-78629761D01*
X162999523Y-78629761D02*
X162904285Y-78629761D01*
X162904285Y-78629761D02*
X162809047Y-78677380D01*
X162809047Y-78677380D02*
X162761428Y-78772618D01*
X162761428Y-78772618D02*
X162761428Y-79010713D01*
X162761428Y-79010713D02*
X162713809Y-79105951D01*
X162475714Y-79439285D02*
X162475714Y-79820237D01*
X162142380Y-79582142D02*
X162999523Y-79582142D01*
X162999523Y-79582142D02*
X163094761Y-79629761D01*
X163094761Y-79629761D02*
X163142380Y-79724999D01*
X163142380Y-79724999D02*
X163142380Y-79820237D01*
X162475714Y-80010714D02*
X162475714Y-80391666D01*
X162142380Y-80153571D02*
X162999523Y-80153571D01*
X162999523Y-80153571D02*
X163094761Y-80201190D01*
X163094761Y-80201190D02*
X163142380Y-80296428D01*
X163142380Y-80296428D02*
X163142380Y-80391666D01*
X163094761Y-81105952D02*
X163142380Y-81010714D01*
X163142380Y-81010714D02*
X163142380Y-80820238D01*
X163142380Y-80820238D02*
X163094761Y-80725000D01*
X163094761Y-80725000D02*
X162999523Y-80677381D01*
X162999523Y-80677381D02*
X162618571Y-80677381D01*
X162618571Y-80677381D02*
X162523333Y-80725000D01*
X162523333Y-80725000D02*
X162475714Y-80820238D01*
X162475714Y-80820238D02*
X162475714Y-81010714D01*
X162475714Y-81010714D02*
X162523333Y-81105952D01*
X162523333Y-81105952D02*
X162618571Y-81153571D01*
X162618571Y-81153571D02*
X162713809Y-81153571D01*
X162713809Y-81153571D02*
X162809047Y-80677381D01*
X163142380Y-81582143D02*
X162475714Y-81582143D01*
X162666190Y-81582143D02*
X162570952Y-81629762D01*
X162570952Y-81629762D02*
X162523333Y-81677381D01*
X162523333Y-81677381D02*
X162475714Y-81772619D01*
X162475714Y-81772619D02*
X162475714Y-81867857D01*
X162475714Y-82105953D02*
X163142380Y-82344048D01*
X162475714Y-82582143D02*
X163142380Y-82344048D01*
X163142380Y-82344048D02*
X163380476Y-82248810D01*
X163380476Y-82248810D02*
X163428095Y-82201191D01*
X163428095Y-82201191D02*
X163475714Y-82105953D01*
X163142380Y-83486905D02*
X163142380Y-82915477D01*
X163142380Y-83201191D02*
X162142380Y-83201191D01*
X162142380Y-83201191D02*
X162285238Y-83105953D01*
X162285238Y-83105953D02*
X162380476Y-83010715D01*
X162380476Y-83010715D02*
X162428095Y-82915477D01*
%TO.C,Jdisplay1*%
X160456190Y-73507380D02*
X160456190Y-74221666D01*
X160456190Y-74221666D02*
X160503809Y-74364523D01*
X160503809Y-74364523D02*
X160599047Y-74459761D01*
X160599047Y-74459761D02*
X160741904Y-74507380D01*
X160741904Y-74507380D02*
X160837142Y-74507380D01*
X159551428Y-74507380D02*
X159551428Y-73507380D01*
X159551428Y-74459761D02*
X159646666Y-74507380D01*
X159646666Y-74507380D02*
X159837142Y-74507380D01*
X159837142Y-74507380D02*
X159932380Y-74459761D01*
X159932380Y-74459761D02*
X159979999Y-74412142D01*
X159979999Y-74412142D02*
X160027618Y-74316904D01*
X160027618Y-74316904D02*
X160027618Y-74031190D01*
X160027618Y-74031190D02*
X159979999Y-73935952D01*
X159979999Y-73935952D02*
X159932380Y-73888333D01*
X159932380Y-73888333D02*
X159837142Y-73840714D01*
X159837142Y-73840714D02*
X159646666Y-73840714D01*
X159646666Y-73840714D02*
X159551428Y-73888333D01*
X159075237Y-74507380D02*
X159075237Y-73840714D01*
X159075237Y-73507380D02*
X159122856Y-73555000D01*
X159122856Y-73555000D02*
X159075237Y-73602619D01*
X159075237Y-73602619D02*
X159027618Y-73555000D01*
X159027618Y-73555000D02*
X159075237Y-73507380D01*
X159075237Y-73507380D02*
X159075237Y-73602619D01*
X158646666Y-74459761D02*
X158551428Y-74507380D01*
X158551428Y-74507380D02*
X158360952Y-74507380D01*
X158360952Y-74507380D02*
X158265714Y-74459761D01*
X158265714Y-74459761D02*
X158218095Y-74364523D01*
X158218095Y-74364523D02*
X158218095Y-74316904D01*
X158218095Y-74316904D02*
X158265714Y-74221666D01*
X158265714Y-74221666D02*
X158360952Y-74174047D01*
X158360952Y-74174047D02*
X158503809Y-74174047D01*
X158503809Y-74174047D02*
X158599047Y-74126428D01*
X158599047Y-74126428D02*
X158646666Y-74031190D01*
X158646666Y-74031190D02*
X158646666Y-73983571D01*
X158646666Y-73983571D02*
X158599047Y-73888333D01*
X158599047Y-73888333D02*
X158503809Y-73840714D01*
X158503809Y-73840714D02*
X158360952Y-73840714D01*
X158360952Y-73840714D02*
X158265714Y-73888333D01*
X157789523Y-73840714D02*
X157789523Y-74840714D01*
X157789523Y-73888333D02*
X157694285Y-73840714D01*
X157694285Y-73840714D02*
X157503809Y-73840714D01*
X157503809Y-73840714D02*
X157408571Y-73888333D01*
X157408571Y-73888333D02*
X157360952Y-73935952D01*
X157360952Y-73935952D02*
X157313333Y-74031190D01*
X157313333Y-74031190D02*
X157313333Y-74316904D01*
X157313333Y-74316904D02*
X157360952Y-74412142D01*
X157360952Y-74412142D02*
X157408571Y-74459761D01*
X157408571Y-74459761D02*
X157503809Y-74507380D01*
X157503809Y-74507380D02*
X157694285Y-74507380D01*
X157694285Y-74507380D02*
X157789523Y-74459761D01*
X156741904Y-74507380D02*
X156837142Y-74459761D01*
X156837142Y-74459761D02*
X156884761Y-74364523D01*
X156884761Y-74364523D02*
X156884761Y-73507380D01*
X155932380Y-74507380D02*
X155932380Y-73983571D01*
X155932380Y-73983571D02*
X155979999Y-73888333D01*
X155979999Y-73888333D02*
X156075237Y-73840714D01*
X156075237Y-73840714D02*
X156265713Y-73840714D01*
X156265713Y-73840714D02*
X156360951Y-73888333D01*
X155932380Y-74459761D02*
X156027618Y-74507380D01*
X156027618Y-74507380D02*
X156265713Y-74507380D01*
X156265713Y-74507380D02*
X156360951Y-74459761D01*
X156360951Y-74459761D02*
X156408570Y-74364523D01*
X156408570Y-74364523D02*
X156408570Y-74269285D01*
X156408570Y-74269285D02*
X156360951Y-74174047D01*
X156360951Y-74174047D02*
X156265713Y-74126428D01*
X156265713Y-74126428D02*
X156027618Y-74126428D01*
X156027618Y-74126428D02*
X155932380Y-74078809D01*
X155551427Y-73840714D02*
X155313332Y-74507380D01*
X155075237Y-73840714D02*
X155313332Y-74507380D01*
X155313332Y-74507380D02*
X155408570Y-74745476D01*
X155408570Y-74745476D02*
X155456189Y-74793095D01*
X155456189Y-74793095D02*
X155551427Y-74840714D01*
X154170475Y-74507380D02*
X154741903Y-74507380D01*
X154456189Y-74507380D02*
X154456189Y-73507380D01*
X154456189Y-73507380D02*
X154551427Y-73650238D01*
X154551427Y-73650238D02*
X154646665Y-73745476D01*
X154646665Y-73745476D02*
X154741903Y-73793095D01*
D11*
%TO.C,U1*%
X124560000Y-83890000D02*
X119260000Y-83890000D01*
X124560000Y-73610000D02*
X124560000Y-83890000D01*
X122910000Y-73610000D02*
X124560000Y-73610000D01*
X119260000Y-83890000D02*
X119260000Y-73610000D01*
X119260000Y-73610000D02*
X120910000Y-73610000D01*
X120910000Y-73610000D02*
G75*
G03*
X122910000Y-73610000I1000000J0D01*
G01*
%TO.C,Jbattery1*%
X161080000Y-81800000D02*
X158960000Y-81800000D01*
X161080000Y-79740000D02*
X161080000Y-81800000D01*
X161080000Y-79740000D02*
X158960000Y-79740000D01*
X161080000Y-78740000D02*
X161080000Y-77680000D01*
X161080000Y-77680000D02*
X160020000Y-77680000D01*
X158960000Y-79740000D02*
X158960000Y-81800000D01*
%TO.C,Jdisplay1*%
X158540000Y-83260000D02*
X156420000Y-83260000D01*
X158540000Y-77200000D02*
X158540000Y-83260000D01*
X158540000Y-77200000D02*
X156420000Y-77200000D01*
X158540000Y-76200000D02*
X158540000Y-75140000D01*
X158540000Y-75140000D02*
X157480000Y-75140000D01*
X156420000Y-77200000D02*
X156420000Y-83260000D01*
%TD*%
M02*
